<!-- Generator: Adobe Illustrator 22.0.1, SVG Export Plug-In  -->
<svg version="1.1"
	 xmlns="http://www.w3.org/2000/svg" xmlns:xlink="http://www.w3.org/1999/xlink" xmlns:a="http://ns.adobe.com/AdobeSVGViewerExtensions/3.0/"
	 x="0px" y="0px" width="70.464px" height="18px" viewBox="0 0 70.464 18" style="enable-background:new 0 0 70.464 18;"
	 xml:space="preserve">
<style type="text/css">
	.st0{fill:#FFFFFF;}
</style>
<defs>
</defs>
<g>
	<g>
		<g>
			<path id="White_2_" class="st0" d="M17.005,0H0.997C0.447,0,0,0.446,0,0.996v16.008C0,17.554,0.447,18,0.997,18h8.62v-6.973
				H7.269V8.313h2.348V6.308c0-2.325,1.42-3.588,3.491-3.588c0.995,0,1.846,0.077,2.098,0.107v2.429h-1.439
				c-1.13,0-1.351,0.538-1.351,1.321v1.737h2.689l-0.349,2.714h-2.341V18h4.588c0.552,0,0.994-0.446,0.994-0.996V0.996
				C17.999,0.446,17.557,0,17.005,0z"/>
			<path class="st0" d="M43.598,4.094c-0.578,0.259-1.209,0.435-1.863,0.511c0.673-0.399,1.184-1.037,1.426-1.794
				c-0.624,0.373-1.321,0.643-2.06,0.786c-0.59-0.629-1.437-1.023-2.37-1.023c-1.79,0-3.243,1.451-3.243,3.243
				c0,0.256,0.028,0.502,0.085,0.741c-2.695-0.135-5.089-1.428-6.69-3.392c-0.28,0.481-0.438,1.04-0.438,1.634
				c0,1.127,0.573,2.119,1.443,2.697c-0.53-0.013-1.036-0.162-1.471-0.406c0,0.015,0,0.027,0,0.042c0,1.573,1.117,2.883,2.605,3.184
				c-0.274,0.071-0.558,0.113-0.855,0.113c-0.209,0-0.414-0.021-0.612-0.056c0.412,1.285,1.61,2.224,3.035,2.251
				c-1.112,0.87-2.515,1.388-4.033,1.388c-0.262,0-0.524-0.014-0.776-0.046c1.435,0.924,3.143,1.458,4.976,1.458
				c5.967,0,9.23-4.942,9.23-9.231c0-0.138-0.002-0.281-0.008-0.42C42.612,5.316,43.165,4.747,43.598,4.094z"/>
		</g>
	</g>
	<g>
		<path class="st0" d="M61.463,1.622c2.403,0,2.688,0.009,3.638,0.052c0.877,0.041,1.354,0.187,1.671,0.31
			c0.42,0.163,0.72,0.358,1.035,0.673c0.314,0.315,0.51,0.615,0.673,1.035c0.123,0.317,0.27,0.794,0.31,1.671
			C68.833,6.312,68.842,6.597,68.842,9s-0.009,2.688-0.053,3.637c-0.04,0.878-0.187,1.354-0.31,1.671
			c-0.163,0.42-0.358,0.72-0.673,1.035c-0.315,0.315-0.615,0.51-1.035,0.673c-0.317,0.123-0.794,0.27-1.671,0.31
			c-0.949,0.043-1.233,0.053-3.638,0.053c-2.402,0-2.688-0.009-3.637-0.053c-0.877-0.04-1.354-0.187-1.671-0.31
			c-0.42-0.163-0.72-0.358-1.034-0.673c-0.315-0.315-0.511-0.615-0.674-1.035c-0.123-0.317-0.27-0.794-0.31-1.671
			c-0.044-0.949-0.053-1.233-0.053-3.637s0.009-2.688,0.053-3.637c0.04-0.878,0.187-1.354,0.31-1.671
			c0.163-0.42,0.358-0.72,0.674-1.035c0.314-0.315,0.614-0.51,1.034-0.673c0.317-0.123,0.794-0.27,1.671-0.31
			C58.775,1.631,59.061,1.622,61.463,1.622 M61.463,0c-2.443,0-2.75,0.01-3.71,0.054c-0.958,0.043-1.612,0.196-2.184,0.418
			c-0.592,0.229-1.094,0.538-1.595,1.038c-0.5,0.5-0.808,1.002-1.038,1.594c-0.223,0.573-0.374,1.227-0.418,2.185
			C52.474,6.249,52.463,6.556,52.463,9s0.011,2.75,0.055,3.71c0.044,0.958,0.195,1.612,0.418,2.185
			c0.23,0.592,0.538,1.094,1.038,1.594c0.501,0.5,1.003,0.808,1.595,1.038c0.572,0.223,1.226,0.375,2.184,0.419
			C58.713,17.99,59.02,18,61.463,18c2.444,0,2.751-0.01,3.711-0.054c0.958-0.044,1.612-0.196,2.185-0.419
			c0.592-0.23,1.094-0.538,1.595-1.038c0.5-0.5,0.808-1.002,1.038-1.594c0.222-0.573,0.374-1.227,0.418-2.185
			c0.044-0.96,0.055-1.266,0.055-3.71s-0.011-2.751-0.055-3.711c-0.044-0.958-0.196-1.612-0.418-2.185
			c-0.23-0.592-0.538-1.094-1.038-1.594c-0.501-0.5-1.003-0.808-1.595-1.038c-0.572-0.223-1.227-0.375-2.185-0.418
			C64.214,0.01,63.907,0,61.463,0z"/>
		<path class="st0" d="M61.463,4.378c-2.552,0-4.621,2.069-4.621,4.622s2.069,4.622,4.621,4.622c2.553,0,4.622-2.069,4.622-4.622
			S64.016,4.378,61.463,4.378 M61.463,12c-1.656,0-2.999-1.343-2.999-3s1.343-3,2.999-3c1.657,0,3,1.343,3,3S63.12,12,61.463,12z"/>
		<path class="st0" d="M67.348,4.196c0,0.596-0.483,1.08-1.08,1.08s-1.08-0.484-1.08-1.08c0-0.597,0.483-1.08,1.08-1.08
			S67.348,3.599,67.348,4.196"/>
	</g>
</g>
</svg>