<!-- Generator: Adobe Illustrator 22.0.1, SVG Export Plug-In  -->
<svg version="1.1"
	 xmlns="http://www.w3.org/2000/svg" xmlns:xlink="http://www.w3.org/1999/xlink" xmlns:a="http://ns.adobe.com/AdobeSVGViewerExtensions/3.0/"
	 x="0px" y="0px" width="241.204px" height="383.68px" viewBox="0 0 241.204 383.68"
	 style="enable-background:new 0 0 241.204 383.68;" xml:space="preserve">
<style type="text/css">
	.st0{fill:#FFFFFF;}
</style>
<defs>
</defs>
<path class="st0" d="M65.013,246.101c1.639,2.575,3.235,5.135,4.77,7.679c15.874,26.32,34.422,52.89,44.171,123.6
	c0.143,1.031,0.449,2.037,0.926,2.933l2.711,2.711c0.826,0.413,1.79,0.656,2.909,0.656h0.194c4.001,0,6.093-3.03,6.546-6.3
	c9.749-70.71,28.297-97.28,44.171-123.6c8.742-14.482,19.359-29.479,29.647-44.806c20.742-30.903,40.147-63.151,40.147-95.244
	C241.204,53.26,191.717,0,120.78,0h-0.367C70.047,0,30.507,26.854,11.806,64.07C4.168,79.27,0,96.195,0,113.73
	c0,25.854,12.592,51.809,28.33,77.08c11.785,18.923,25.33,37.462,36.681,55.289 M149.964,144.539
	c-16.202,16.202-42.523,16.202-58.724,0c-2.89-2.89-5.254-6.107-7.112-9.528c-8.553-15.744-6.188-35.885,7.112-49.186
	c13.309-13.309,33.443-15.676,49.191-7.119c3.422,1.86,6.641,4.226,9.534,7.119C166.155,102.016,166.155,128.348,149.964,144.539z"
	/>
</svg>