<!-- Generator: Adobe Illustrator 22.0.1, SVG Export Plug-In  -->
<svg version="1.1"
	 xmlns="http://www.w3.org/2000/svg" xmlns:xlink="http://www.w3.org/1999/xlink" xmlns:a="http://ns.adobe.com/AdobeSVGViewerExtensions/3.0/"
	 x="0px" y="0px" width="51.752px" height="18.691px" viewBox="0 0 51.752 18.691"
	 style="enable-background:new 0 0 51.752 18.691;" xml:space="preserve">
<style type="text/css">
	.st0{fill:#FFFFFF;}
</style>
<defs>
</defs>
<g>
	<polygon class="st0" points="25.868,15.09 19.801,18.691 21.348,11.793 16.042,7.137 23.076,6.478 25.868,0 28.671,6.478 
		35.701,7.137 30.403,11.793 31.951,18.691 	"/>
	<polygon class="st0" points="44.779,13.409 40.471,15.965 41.566,11.076 37.807,7.768 42.797,7.307 44.779,2.702 46.762,7.307 
		51.752,7.768 47.993,11.076 49.083,15.965 	"/>
	<polygon class="st0" points="6.964,13.409 11.272,15.965 10.177,11.076 13.941,7.768 8.946,7.307 6.964,2.702 4.981,7.307 0,7.768 
		3.754,11.076 2.66,15.965 	"/>
</g>
</svg>