<!-- Generator: Adobe Illustrator 22.0.1, SVG Export Plug-In  -->
<svg version="1.1"
	 xmlns="http://www.w3.org/2000/svg" xmlns:xlink="http://www.w3.org/1999/xlink" xmlns:a="http://ns.adobe.com/AdobeSVGViewerExtensions/3.0/"
	 x="0px" y="0px" width="86.29px" height="40.603px" viewBox="0 0 86.29 40.603" style="enable-background:new 0 0 86.29 40.603;"
	 xml:space="preserve">
<style type="text/css">
	.st0{fill:#FFFFFF;}
</style>
<defs>
</defs>
<g>
	<g>
		<path class="st0" d="M0,40.603V0l0.57,0.063c14.083,1.555,28.407,2.343,42.575,2.343c14.168,0,28.493-0.788,42.576-2.343L86.29,0
			v40.603l-0.569-0.063c-14.083-1.555-28.408-2.343-42.576-2.343c-14.168,0-28.492,0.788-42.575,2.343L0,40.603z M43.145,37.171
			c14.015,0,28.182,0.769,42.119,2.287V1.146C71.327,2.663,57.16,3.433,43.145,3.433c-14.015,0-28.182-0.769-42.118-2.287v38.311
			C14.963,37.94,29.129,37.171,43.145,37.171z"/>
	</g>
	<g>
		<g>
			<path class="st0" d="M10.065,21.605c0,0.551,0,1.101,0,1.651c0.001,1.006-0.197,1.79-0.588,2.367
				c-0.392,0.577-0.971,0.911-1.735,0.99c-0.765,0.08-1.343-0.139-1.734-0.677c-0.392-0.536-0.588-1.353-0.587-2.436
				c0-2.317,0-4.634,0-6.952c0-1.082,0.195-1.9,0.587-2.436c0.392-0.537,0.97-0.757,1.734-0.677c0.765,0.08,1.343,0.414,1.735,0.991
				c0.392,0.577,0.588,1.362,0.588,2.367c0,0.402,0,0.805,0,1.207c-0.491-0.015-0.982-0.031-1.473-0.046c0-0.454,0-0.908,0-1.362
				c0-0.46-0.073-0.788-0.22-0.987c-0.146-0.198-0.342-0.308-0.588-0.326c-0.245-0.018-0.441,0.063-0.588,0.244
				c-0.147,0.182-0.22,0.509-0.22,0.981c0,2.347,0,4.694,0,7.041c0,0.472,0.073,0.797,0.22,0.972
				c0.147,0.175,0.342,0.253,0.588,0.234c0.245-0.018,0.441-0.124,0.588-0.317c0.146-0.192,0.22-0.518,0.22-0.977
				c0-0.606,0-1.211,0-1.816C9.082,21.629,9.573,21.617,10.065,21.605z"/>
			<path class="st0" d="M11.368,13.932c0.52,0.047,1.039,0.093,1.559,0.138c0,3.97,0,7.94,0,11.91
				c-0.52,0.045-1.039,0.091-1.559,0.138C11.368,22.056,11.368,17.994,11.368,13.932z"/>
			<path class="st0" d="M15.805,17.46c0,2.761,0,5.523,0,8.284c-0.468,0.036-0.936,0.074-1.404,0.112c0-3.887,0-7.775,0-11.662
				c0.652,0.053,1.305,0.105,1.957,0.155c0.534,2.306,1.069,4.561,1.603,6.771c0-2.218,0-4.435,0-6.653
				c0.463,0.033,0.927,0.066,1.391,0.097c0,3.64,0,7.28,0,10.92c-0.535,0.036-1.07,0.074-1.604,0.113
				C17.101,22.954,16.453,20.244,15.805,17.46z"/>
			<path class="st0" d="M22.39,19.197c0.715,0.007,1.43,0.013,2.144,0.019c0,0.49,0,0.98,0,1.471
				c-0.715,0.005-1.43,0.01-2.144,0.015c0,1.028,0,2.056,0,3.085c0.9-0.038,1.799-0.073,2.698-0.107c0,0.487,0,0.975,0,1.462
				c-1.42,0.073-2.84,0.155-4.259,0.245c0-3.575,0-7.15,0-10.725c1.419,0.09,2.839,0.172,4.259,0.245c0,0.487,0,0.975,0,1.462
				c-0.899-0.033-1.799-0.069-2.698-0.107C22.39,17.241,22.39,18.219,22.39,19.197z"/>
			<path class="st0" d="M27.058,17.393c0.13-0.82,0.42-1.443,0.87-1.863c0.45-0.42,1.056-0.61,1.818-0.577
				c0.761,0.033,1.3,0.269,1.615,0.705c0.314,0.436,0.409,1.046,0.285,1.834c-0.016,0.102-0.032,0.204-0.049,0.306
				c-0.491-0.008-0.982-0.016-1.474-0.025c0.022-0.136,0.043-0.272,0.065-0.408c0.056-0.356,0.027-0.609-0.086-0.759
				c-0.114-0.149-0.294-0.228-0.538-0.236c-0.245-0.008-0.447,0.06-0.608,0.203c-0.16,0.143-0.269,0.395-0.326,0.756
				c-0.054,0.342-0.027,0.646,0.084,0.909c0.11,0.263,0.26,0.511,0.45,0.745c0.191,0.233,0.397,0.465,0.621,0.696
				c0.224,0.231,0.428,0.481,0.613,0.751c0.185,0.27,0.326,0.575,0.423,0.918c0.097,0.342,0.109,0.744,0.036,1.208
				c-0.124,0.788-0.418,1.397-0.88,1.834c-0.463,0.437-1.081,0.673-1.853,0.706c-0.772,0.033-1.323-0.155-1.649-0.576
				c-0.327-0.419-0.424-1.043-0.294-1.863c0.033-0.207,0.066-0.415,0.098-0.622c0.494-0.009,0.988-0.019,1.482-0.027
				c-0.038,0.238-0.076,0.476-0.114,0.714c-0.057,0.361-0.023,0.612,0.101,0.749c0.125,0.138,0.311,0.203,0.559,0.195
				c0.247-0.008,0.456-0.084,0.626-0.229c0.169-0.145,0.284-0.395,0.339-0.752c0.053-0.338,0.024-0.634-0.086-0.891
				c-0.111-0.256-0.262-0.499-0.453-0.729c-0.191-0.229-0.398-0.46-0.622-0.692c-0.223-0.232-0.427-0.487-0.61-0.766
				c-0.183-0.278-0.322-0.596-0.417-0.954C26.99,18.296,26.981,17.875,27.058,17.393z"/>
			<path class="st0" d="M33.201,22.887c-0.128,0.646-0.256,1.293-0.384,1.942c-0.341,0.01-0.682,0.021-1.024,0.032
				c0.635-3.245,1.269-6.446,1.904-9.615c0.535,0.014,1.071,0.028,1.606,0.04c0.635,3.174,1.27,6.318,1.905,9.441
				c-0.37,0.006-0.739,0.013-1.109,0.021c-0.128-0.632-0.256-1.264-0.384-1.898C34.878,22.86,34.039,22.873,33.201,22.887z
				 M33.343,21.968c0.739-0.008,1.478-0.016,2.218-0.022c-0.375-1.818-0.749-3.646-1.123-5.484
				C34.072,18.286,33.708,20.121,33.343,21.968z"/>
			<path class="st0" d="M39.412,24.696c-0.331,0.004-0.663,0.008-0.995,0.012c0-3.122,0-6.244,0-9.367
				c0.469,0.006,0.938,0.012,1.408,0.016c0.767,2.256,1.535,4.5,2.303,6.74c0-2.242,0-4.484,0-6.726
				c0.327,0.001,0.654,0.002,0.981,0.002c0,3.101,0,6.201,0,9.301c-0.384,0-0.767,0.001-1.152,0.002
				c-0.848-2.505-1.696-5.012-2.545-7.536C39.412,19.66,39.412,22.178,39.412,24.696z"/>
			<path class="st0" d="M46.037,24.687c0-2.793,0-5.586,0-8.378c-0.611,0.004-1.223,0.006-1.834,0.008c0-0.315,0-0.629,0-0.944
				c1.588-0.005,3.176-0.02,4.763-0.046c0,0.318,0,0.635,0,0.953c-0.611,0.008-1.222,0.015-1.834,0.02c0,2.799,0,5.598,0,8.397
				C46.767,24.694,46.402,24.69,46.037,24.687z"/>
			<path class="st0" d="M50.658,22.849c-0.128,0.633-0.256,1.266-0.384,1.897c-0.341-0.007-0.682-0.013-1.024-0.019
				c0.635-3.124,1.27-6.268,1.905-9.443c0.535-0.012,1.071-0.025,1.607-0.04c0.635,3.17,1.27,6.372,1.904,9.617
				c-0.369-0.012-0.739-0.024-1.109-0.034c-0.128-0.649-0.256-1.296-0.384-1.942C52.335,22.872,51.496,22.86,50.658,22.849z
				 M50.8,21.945c0.739,0.006,1.478,0.014,2.218,0.022c-0.375-1.846-0.749-3.68-1.124-5.504C51.53,18.301,51.165,20.127,50.8,21.945
				z"/>
			<path class="st0" d="M60.662,14.942c0.786-0.039,1.352,0.13,1.697,0.518c0.345,0.387,0.518,0.97,0.518,1.742
				c0,0.282,0,0.565,0,0.847c0,0.575-0.1,1.042-0.299,1.398c-0.198,0.357-0.511,0.603-0.937,0.739
				c0.455,0.138,0.776,0.392,0.966,0.765c0.189,0.372,0.285,0.842,0.284,1.407c0,0.54,0,1.08,0,1.619
				c0,0.228,0.01,0.449,0.029,0.663c0.019,0.214,0.075,0.413,0.171,0.597c-0.374-0.021-0.748-0.042-1.122-0.062
				c-0.067-0.151-0.114-0.312-0.143-0.485c-0.028-0.172-0.042-0.43-0.043-0.773c0-0.538,0-1.077,0-1.616
				c0-0.578-0.126-0.979-0.376-1.201c-0.251-0.222-0.609-0.334-1.073-0.337c-0.26-0.002-0.521-0.004-0.781-0.005
				c0,1.432,0,2.865,0,4.297c-0.369-0.017-0.738-0.034-1.108-0.05c0-3.32,0-6.64,0-9.96C59.185,15.013,59.923,14.979,60.662,14.942z
				 M60.378,19.735c0.445-0.001,0.79-0.096,1.037-0.288c0.247-0.192,0.369-0.567,0.369-1.126c0-0.328,0-0.656,0-0.984
				c0-0.47-0.087-0.82-0.262-1.047c-0.175-0.228-0.471-0.332-0.888-0.316c-0.36,0.014-0.72,0.028-1.08,0.041
				c0,1.241,0,2.481,0,3.722C59.829,19.737,60.103,19.736,60.378,19.735z"/>
			<path class="st0" d="M64.312,17.293c0.001-0.815,0.186-1.468,0.561-1.97c0.375-0.501,0.945-0.781,1.711-0.833
				c0.766-0.052,1.339,0.154,1.717,0.632c0.378,0.478,0.568,1.153,0.568,2.015c0,1.926,0,3.852,0,5.777
				c0,0.852-0.189,1.524-0.568,2.007c-0.378,0.484-0.951,0.692-1.717,0.64c-0.767-0.052-1.336-0.335-1.711-0.841
				c-0.374-0.507-0.562-1.157-0.561-1.962C64.312,20.936,64.312,19.114,64.312,17.293z M65.406,22.853
				c-0.001,0.489,0.097,0.872,0.291,1.153c0.194,0.28,0.49,0.432,0.887,0.454c0.407,0.022,0.705-0.098,0.894-0.366
				c0.189-0.267,0.285-0.654,0.284-1.158c0-1.941,0-3.881,0-5.822c0-0.503-0.095-0.89-0.284-1.157
				c-0.189-0.267-0.488-0.388-0.894-0.366c-0.398,0.022-0.693,0.174-0.887,0.454c-0.194,0.28-0.291,0.664-0.291,1.153
				C65.406,19.082,65.406,20.968,65.406,22.853z"/>
			<path class="st0" d="M72.357,14.05c0.756-0.064,1.313,0.153,1.673,0.669c0.359,0.515,0.538,1.239,0.538,2.161
				c0,0.11,0,0.219,0,0.328c-0.35,0.015-0.699,0.029-1.049,0.043c0-0.131,0-0.261,0-0.392c0.001-0.545-0.09-0.96-0.269-1.242
				c-0.179-0.282-0.469-0.409-0.865-0.381c-0.396,0.027-0.685,0.191-0.865,0.488c-0.179,0.298-0.269,0.703-0.269,1.219
				c0,0.428,0.083,0.799,0.248,1.114c0.166,0.315,0.372,0.606,0.617,0.875c0.245,0.269,0.512,0.534,0.801,0.797
				c0.288,0.263,0.555,0.555,0.801,0.876c0.246,0.32,0.452,0.687,0.617,1.099c0.166,0.412,0.248,0.902,0.248,1.467
				c0,0.922-0.182,1.647-0.546,2.161c-0.364,0.515-0.929,0.732-1.694,0.667c-0.766-0.065-1.329-0.373-1.688-0.915
				c-0.359-0.542-0.539-1.24-0.539-2.106c0-0.216,0-0.433,0-0.649c0.345,0.011,0.691,0.022,1.036,0.033c0,0.241,0,0.483,0,0.724
				c0,0.526,0.095,0.937,0.284,1.235c0.189,0.297,0.482,0.461,0.879,0.488c0.398,0.027,0.69-0.098,0.88-0.38
				c0.188-0.281,0.283-0.696,0.284-1.241c0-0.442-0.083-0.828-0.248-1.155c-0.165-0.327-0.372-0.629-0.617-0.908
				c-0.246-0.278-0.511-0.548-0.794-0.81c-0.284-0.261-0.548-0.545-0.794-0.849c-0.246-0.305-0.452-0.648-0.617-1.03
				c-0.166-0.382-0.248-0.836-0.248-1.367c0-0.877,0.179-1.578,0.539-2.115C71.057,14.418,71.61,14.114,72.357,14.05z"/>
			<path class="st0" d="M77.02,23.773c-0.127,0.836-0.255,1.666-0.382,2.492c-0.34-0.032-0.68-0.064-1.02-0.096
				c0.633-4.038,1.266-8.19,1.899-12.469c0.534-0.052,1.067-0.105,1.6-0.16c0.633,4.258,1.265,8.645,1.897,13.169
				c-0.368-0.04-0.736-0.079-1.104-0.117c-0.128-0.895-0.255-1.785-0.382-2.669C78.692,23.871,77.856,23.821,77.02,23.773z
				 M77.162,22.577c0.737,0.029,1.473,0.059,2.21,0.09c-0.373-2.521-0.745-4.997-1.119-7.43
				C77.889,17.725,77.526,20.171,77.162,22.577z"/>
		</g>
		<g>
			<g>
				<path class="st0" d="M38.221,29.798l-0.042,0.264h-0.204l0.042-0.264H38.221z"/>
				<path class="st0" d="M39.356,28.141c0.147,0,0.248,0.044,0.304,0.131c0.056,0.087,0.073,0.203,0.05,0.348l-0.027,0.171h-0.201
					l0.029-0.182c0.014-0.087,0.007-0.154-0.021-0.202c-0.028-0.048-0.08-0.072-0.159-0.072c-0.076,0-0.136,0.024-0.179,0.072
					c-0.044,0.048-0.073,0.115-0.087,0.202l-0.159,1.005c-0.014,0.087-0.007,0.155,0.022,0.202c0.029,0.048,0.081,0.072,0.157,0.072
					c0.078,0,0.138-0.024,0.181-0.072c0.043-0.048,0.071-0.116,0.085-0.202l0.039-0.247h0.201l-0.037,0.236
					c-0.023,0.145-0.076,0.261-0.16,0.348c-0.083,0.087-0.199,0.131-0.345,0.131c-0.145,0-0.245-0.043-0.301-0.131
					c-0.056-0.087-0.073-0.203-0.049-0.348l0.156-0.983c0.011-0.073,0.031-0.138,0.057-0.197c0.027-0.059,0.061-0.109,0.103-0.151
					c0.042-0.042,0.091-0.074,0.148-0.097C39.218,28.153,39.283,28.141,39.356,28.141z"/>
				<path class="st0" d="M40.157,28.619c0.023-0.147,0.077-0.263,0.163-0.349c0.085-0.086,0.201-0.129,0.348-0.129
					c0.147,0,0.25,0.043,0.308,0.129c0.059,0.086,0.077,0.203,0.054,0.349l-0.156,0.983c-0.023,0.145-0.078,0.261-0.164,0.348
					c-0.086,0.087-0.202,0.131-0.349,0.131c-0.147,0-0.249-0.043-0.307-0.131c-0.058-0.087-0.075-0.203-0.052-0.348L40.157,28.619z
					 M40.209,29.614c-0.014,0.087-0.006,0.155,0.023,0.202c0.029,0.048,0.083,0.072,0.158,0.072c0.078,0,0.139-0.024,0.182-0.072
					c0.044-0.048,0.073-0.116,0.087-0.202l0.159-1.005c0.014-0.087,0.007-0.154-0.022-0.202c-0.029-0.048-0.082-0.072-0.16-0.072
					c-0.076,0-0.137,0.024-0.181,0.072c-0.045,0.048-0.074,0.115-0.088,0.202L40.209,29.614z"/>
				<path class="st0" d="M41.975,30.059h-0.204l-0.075-1.513l-0.24,1.516h-0.185l0.301-1.902h0.296l0.072,1.519l0.542-1.519h0.296
					l-0.301,1.902h-0.201l0.242-1.53L41.975,30.059z"/>
				<path class="st0" d="M43.211,29.798l-0.042,0.264h-0.204l0.042-0.264H43.211z"/>
				<path class="st0" d="M43.934,29.679L43.8,30.062h-0.195l0.665-1.902h0.307l0.063,1.902h-0.212l-0.013-0.383H43.934z
					 M43.99,29.497h0.424l-0.041-1.098L43.99,29.497z"/>
				<path class="st0" d="M45.802,28.16c0.151,0,0.253,0.037,0.307,0.111c0.055,0.074,0.07,0.182,0.049,0.323l-0.025,0.155
					c-0.016,0.105-0.049,0.19-0.098,0.256c-0.049,0.065-0.115,0.11-0.2,0.136c0.083,0.025,0.137,0.072,0.162,0.14
					c0.026,0.068,0.03,0.153,0.014,0.256l-0.047,0.296c-0.007,0.042-0.012,0.082-0.014,0.121c-0.002,0.039,0.002,0.075,0.016,0.107
					h-0.215c-0.008-0.027-0.013-0.057-0.013-0.089c0-0.031,0.004-0.079,0.015-0.142l0.047-0.299
					c0.017-0.107,0.005-0.181-0.037-0.222c-0.041-0.041-0.106-0.061-0.195-0.061h-0.149l-0.129,0.813h-0.212l0.301-1.902H45.802z
					 M45.606,29.057c0.085,0,0.154-0.018,0.207-0.053c0.053-0.036,0.087-0.105,0.103-0.208l0.029-0.182
					c0.013-0.087,0.007-0.152-0.019-0.196c-0.027-0.043-0.08-0.065-0.16-0.065H45.56l-0.112,0.704H45.606z"/>
			</g>
		</g>
	</g>
	<g>
		<polygon class="st0" points="43.144,11.447 42.306,11.944 42.52,10.992 41.787,10.349 42.759,10.258 43.144,9.363 43.531,10.258 
			44.502,10.349 43.77,10.992 43.984,11.944 		"/>
		<polygon class="st0" points="45.756,11.215 45.161,11.568 45.312,10.893 44.793,10.436 45.482,10.372 45.756,9.736 46.029,10.372 
			46.718,10.436 46.199,10.893 46.35,11.568 		"/>
		<polygon class="st0" points="40.534,11.215 41.129,11.568 40.977,10.893 41.497,10.436 40.807,10.372 40.534,9.736 40.26,10.372 
			39.572,10.436 40.09,10.893 39.939,11.568 		"/>
	</g>
</g>
</svg>