<!-- Generator: Adobe Illustrator 22.0.1, SVG Export Plug-In  -->
<svg version="1.1"
	 xmlns="http://www.w3.org/2000/svg" xmlns:xlink="http://www.w3.org/1999/xlink" xmlns:a="http://ns.adobe.com/AdobeSVGViewerExtensions/3.0/"
	 x="0px" y="0px" width="253.348px" height="57.035px" viewBox="0 0 253.348 57.035"
	 style="enable-background:new 0 0 253.348 57.035;" xml:space="preserve">
<style type="text/css">
	.st0{fill:#E9234D;}
</style>
<defs>
</defs>
<g>
	<path class="st0" d="M0,31.692h4.338l3.603-7.987l0.131-0.289h0.317h11.424h0.314l0.132,0.285l3.692,7.991h4.336L14.144,0.102
		L0,31.692z M18.272,19.175l0.319,0.696h-0.765h-7.362H9.697l0.319-0.696l3.682-8.039l0.447-0.976l0.447,0.976L18.272,19.175z"/>
	<path class="st0" d="M49.465,17.481l-4.041,14.212h-4.319l7.211-26.996l7.315,17.87l7.315-17.87l7.211,26.996h-4.319l-4.041-14.212
		L55.63,32.807L49.465,17.481z"/>
	<path class="st0" d="M102.306,25.283h-9.405l-2.891,6.409h-4.459L97.638,4.696l12.087,26.996h-4.459L102.306,25.283z
		 M100.669,21.556l-3.03-6.618l-3.031,6.618H100.669z"/>
	<path class="st0" d="M127.49,31.692V5.846h5.365c0.951,0.023,2.072,0.169,3.361,0.436c1.289,0.267,2.572,0.807,3.849,1.619
		c0.604,0.371,1.22,0.853,1.847,1.446c0.627,0.592,1.189,1.324,1.689,2.194c0.499,0.872,0.911,1.899,1.236,3.083
		s0.488,2.555,0.488,4.11c0,1.556-0.162,2.927-0.488,4.11c-0.325,1.184-0.737,2.218-1.236,3.1c-0.5,0.883-1.063,1.626-1.689,2.23
		c-0.627,0.604-1.243,1.091-1.847,1.463c-0.627,0.395-1.271,0.726-1.933,0.993c-0.661,0.268-1.305,0.476-1.933,0.627
		c-0.627,0.152-1.225,0.262-1.794,0.331c-0.569,0.07-1.086,0.105-1.549,0.105H127.49z M131.705,10.061v17.417
		c0.418,0,0.691-0.006,0.819-0.017c0.127-0.012,0.203-0.017,0.227-0.017c0.951-0.023,1.921-0.162,2.908-0.418
		c0.987-0.254,1.886-0.706,2.699-1.355s1.474-1.53,1.986-2.643c0.511-1.112,0.766-2.549,0.766-4.311
		c0-1.738-0.255-3.164-0.766-4.276c-0.512-1.112-1.173-1.993-1.986-2.642c-0.813-0.649-1.712-1.095-2.699-1.338
		c-0.988-0.244-1.957-0.377-2.908-0.4h-0.975H131.705z"/>
	<path class="st0" d="M169.394,9.678v5.921h7.42v3.727h-7.42v8.534h9.719v3.832h-13.933V19.326h-2.299v-3.727h2.299V5.846h13.933
		v3.832H169.394z"/>
	<path class="st0" d="M207.588,32.25c-1.256,0-2.431-0.239-3.526-0.714c-1.093-0.476-2.047-1.12-2.861-1.933
		c-0.814-0.813-1.46-1.765-1.937-2.857c-0.477-1.091-0.715-2.264-0.715-3.518V5.846h4.215V23.2c0,0.673,0.122,1.304,0.366,1.896
		c0.244,0.591,0.586,1.101,1.028,1.53c0.441,0.429,0.951,0.772,1.532,1.026c0.581,0.255,1.208,0.383,1.881,0.383
		c0.65,0,1.272-0.128,1.863-0.383c0.592-0.254,1.103-0.597,1.533-1.026c0.43-0.429,0.772-0.939,1.028-1.53
		c0.255-0.591,0.383-1.223,0.383-1.896V5.846h4.215v17.382c0,1.254-0.239,2.427-0.716,3.518c-0.476,1.091-1.123,2.044-1.937,2.857
		c-0.814,0.813-1.768,1.457-2.861,1.933C209.985,32.011,208.821,32.25,207.588,32.25z"/>
	<path class="st0" d="M251.428,17.618c-0.694-0.817-1.626-1.615-2.77-2.373c-1.156-0.767-2.625-1.554-4.367-2.341
		c-1.22-0.565-2.131-1.072-2.789-1.552c-0.662-0.48-1.159-0.941-1.476-1.368c-0.338-0.456-0.528-0.85-0.583-1.203
		c-0.047-0.29-0.071-0.539-0.071-0.739c0-1.17,0.301-2.03,0.894-2.554c0.751-0.783,1.808-1.194,3.111-1.194
		c0.58,0,1.131,0.115,1.637,0.343c0.492,0.222,0.934,0.52,1.317,0.885c0.389,0.372,0.693,0.817,0.906,1.322
		c0.15,0.358,0.247,0.739,0.291,1.137h4.305c-0.055-0.978-0.273-1.914-0.652-2.788c-0.445-1.025-1.053-1.934-1.808-2.702
		c-0.752-0.765-1.658-1.378-2.694-1.822C245.644,0.225,244.533,0,243.378,0c-1.215,0-2.378,0.226-3.458,0.671
		c-1.074,0.443-2.013,1.076-2.793,1.881c-0.753,0.755-1.322,1.621-1.696,2.581c-0.374,0.963-0.551,1.981-0.523,3.025
		c0.026,1.174,0.286,2.224,0.776,3.122c0.502,0.921,1.131,1.729,1.871,2.401c0.756,0.687,1.591,1.285,2.481,1.778
		c0.91,0.504,1.798,0.944,2.637,1.308c1.511,0.639,2.703,1.296,3.537,1.951c0.837,0.658,1.457,1.288,1.843,1.872
		c0.406,0.619,0.628,1.168,0.679,1.679c0.045,0.45,0.066,0.788,0.066,1.035c0,0.948-0.198,1.743-0.589,2.362
		c-0.384,0.606-0.864,1.085-1.427,1.424c-0.544,0.326-1.129,0.556-1.739,0.681c-0.586,0.12-1.131,0.181-1.622,0.181
		c-0.751,0-1.459-0.144-2.105-0.428c-0.641-0.281-1.206-0.67-1.677-1.158c-0.467-0.481-0.847-1.066-1.128-1.736
		c-0.221-0.528-0.357-1.096-0.404-1.694h-4.301c0.053,1.13,0.289,2.221,0.703,3.25c0.474,1.179,1.168,2.243,2.062,3.163
		c0.896,0.951,1.942,1.676,3.115,2.16c1.178,0.488,2.434,0.735,3.735,0.735c2.758,0,5.034-0.713,6.765-2.119
		c0.357-0.275,0.715-0.621,1.076-1.035c0.364-0.419,0.705-0.91,1.014-1.461c0.308-0.55,0.567-1.193,0.77-1.909
		c0.202-0.711,0.304-1.524,0.304-2.417c0-1.113-0.151-2.152-0.449-3.088C252.606,19.295,252.111,18.421,251.428,17.618z"/>
	<g>
		<circle class="st0" cx="3.881" cy="53.344" r="1.803"/>
		<circle class="st0" cx="15.605" cy="53.344" r="2.173"/>
		<circle class="st0" cx="27.328" cy="53.344" r="2.477"/>
		<circle class="st0" cx="39.052" cy="53.344" r="2.749"/>
		<circle class="st0" cx="50.776" cy="53.344" r="2.981"/>
		<circle class="st0" cx="62.499" cy="53.344" r="3.185"/>
		<circle class="st0" cx="74.223" cy="53.344" r="3.352"/>
		<circle class="st0" cx="85.946" cy="53.344" r="3.506"/>
		<circle class="st0" cx="97.67" cy="53.344" r="3.601"/>
		<circle class="st0" cx="109.394" cy="53.344" r="3.663"/>
		<circle class="st0" cx="121.117" cy="53.344" r="3.691"/>
		<circle class="st0" cx="132.841" cy="53.344" r="3.691"/>
		<circle class="st0" cx="144.564" cy="53.344" r="3.663"/>
		<circle class="st0" cx="156.288" cy="53.344" r="3.587"/>
		<circle class="st0" cx="168.012" cy="53.344" r="3.495"/>
		<circle class="st0" cx="179.735" cy="53.344" r="3.352"/>
		<circle class="st0" cx="191.459" cy="53.344" r="3.183"/>
		<circle class="st0" cx="203.182" cy="53.344" r="2.981"/>
		<circle class="st0" cx="214.906" cy="53.344" r="2.789"/>
		<circle class="st0" cx="226.63" cy="53.344" r="2.525"/>
		<circle class="st0" cx="238.353" cy="53.344" r="2.173"/>
		<circle class="st0" cx="250.077" cy="53.344" r="1.837"/>
	</g>
</g>
</svg>